<svg xmlns="http://www.w3.org/2000/svg" xmlns:xlink="http://www.w3.org/1999/xlink" width="500" zoomAndPan="magnify" viewBox="0 0 375 374.999991" height="500" preserveAspectRatio="xMidYMid meet" version="1.0"><defs><g><g id="id1"/><g id="id2"/></g><clipPath id="id3"><path d="M 140.5625 108.113281 L 234.3125 108.113281 L 234.3125 199.613281 L 140.5625 199.613281 Z M 140.5625 108.113281 " clip-rule="nonzero"/></clipPath></defs><rect x="-37.5" width="450" fill="rgb(100%, 100%, 100%)" y="-37.499999" height="449.999989" fill-opacity="1"/><rect x="-37.5" width="450" fill="rgb(100%, 100%, 100%)" y="-37.499999" height="449.999989" fill-opacity="1"/><rect x="-37.5" width="450" fill="rgb(100%, 100%, 100%)" y="-37.499999" height="449.999989" fill-opacity="1"/><rect x="-37.5" width="450" fill="rgb(100%, 100%, 100%)" y="-37.499999" height="449.999989" fill-opacity="1"/><g clip-path="url(#id3)"><path fill="rgb(1.179504%, 59.609985%, 61.959839%)" d="M 168.695312 184.8125 C 168.695312 186.15625 168.695312 187.503906 170.035156 187.503906 C 171.371094 187.503906 172.710938 187.503906 174.050781 186.15625 C 174.050781 184.8125 174.050781 183.464844 174.050781 180.773438 C 172.710938 178.082031 172.710938 174.046875 172.710938 170.011719 C 172.710938 163.28125 174.050781 152.515625 178.066406 147.136719 C 179.402344 147.136719 179.402344 147.136719 180.742188 148.480469 C 183.421875 155.207031 184.757812 167.320312 191.453125 172.699219 C 199.484375 176.738281 203.5 174.046875 207.515625 164.628906 C 207.515625 160.589844 208.851562 149.824219 208.851562 135.023438 C 208.851562 126.949219 208.851562 121.570312 210.191406 121.570312 C 214.207031 118.878906 222.238281 157.898438 222.238281 160.589844 C 223.578125 164.628906 226.253906 165.972656 230.269531 164.628906 C 232.945312 164.628906 235.625 160.589844 234.285156 156.554688 C 230.269531 129.640625 223.578125 113.496094 214.207031 109.457031 C 210.191406 108.113281 206.175781 108.113281 203.5 109.457031 C 192.789062 116.1875 196.804688 148.480469 196.804688 159.246094 C 196.804688 163.28125 195.46875 161.9375 192.789062 156.554688 C 191.453125 151.171875 190.113281 147.136719 190.113281 145.789062 C 187.4375 140.40625 184.757812 137.714844 180.742188 137.714844 C 162.003906 137.714844 166.019531 174.046875 168.695312 184.8125 Z M 194.128906 114.839844 C 191.453125 114.839844 187.4375 113.496094 183.421875 113.496094 C 159.324219 113.496094 140.585938 133.679688 140.585938 156.554688 C 140.585938 180.773438 159.324219 199.613281 183.421875 199.613281 C 202.160156 199.613281 218.222656 187.503906 223.578125 171.355469 C 222.238281 170.011719 219.5625 170.011719 218.222656 168.664062 C 214.207031 183.464844 199.484375 194.230469 183.421875 194.230469 C 163.339844 194.230469 145.941406 178.082031 145.941406 156.554688 C 145.941406 136.371094 163.339844 120.222656 183.421875 120.222656 C 186.097656 120.222656 190.113281 120.222656 192.789062 120.222656 C 194.128906 118.878906 194.128906 117.53125 194.128906 114.839844 Z M 194.128906 114.839844 " fill-opacity="1" fill-rule="evenodd"/></g><g fill="rgb(0%, 0%, 0%)" fill-opacity="1"><g transform="translate(138.918046, 238.365486)"><g><path d="M 15.8125 0 L 15.8125 -5.890625 C 15.8125 -6.617188 15.835938 -7.367188 15.890625 -8.140625 C 15.953125 -8.910156 16.015625 -9.554688 16.078125 -10.078125 C 16.140625 -10.609375 16.175781 -10.941406 16.1875 -11.078125 L 16.09375 -11.078125 L 13.078125 0 L 8.96875 0 L 5.921875 -11.0625 L 5.828125 -11.0625 C 5.835938 -10.914062 5.878906 -10.582031 5.953125 -10.0625 C 6.023438 -9.550781 6.09375 -8.910156 6.15625 -8.140625 C 6.21875 -7.367188 6.25 -6.617188 6.25 -5.890625 L 6.25 0 L 1.421875 0 L 1.421875 -16.359375 L 8.84375 -16.359375 L 11.3125 -6.921875 L 11.421875 -6.921875 L 13.859375 -16.359375 L 21.015625 -16.359375 L 21.015625 0 Z M 15.8125 0 "/></g></g></g><g fill="rgb(0%, 0%, 0%)" fill-opacity="1"><g transform="translate(163.528453, 238.365486)"><g><path d="M 12.71875 0 L 12.03125 -2.3125 L 6.296875 -2.3125 L 5.609375 0 L 0.234375 0 L 6.203125 -16.359375 L 12.3125 -16.359375 L 18.28125 0 Z M 7.390625 -5.96875 L 10.9375 -5.96875 L 9.234375 -11.796875 L 9.125 -11.796875 Z M 7.390625 -5.96875 "/></g></g></g><g fill="rgb(0%, 0%, 0%)" fill-opacity="1"><g transform="translate(184.191753, 238.365486)"><g><path d="M 12.796875 0 L 12.796875 -6.203125 L 7.015625 -6.203125 L 7.015625 0 L 1.765625 0 L 1.765625 -16.359375 L 7.015625 -16.359375 L 7.015625 -10.390625 L 12.796875 -10.390625 L 12.796875 -16.359375 L 18.046875 -16.359375 L 18.046875 0 Z M 12.796875 0 "/></g></g></g><g fill="rgb(0%, 0%, 0%)" fill-opacity="1"><g transform="translate(206.162831, 238.365486)"><g><path d="M 8.84375 -16.359375 C 14.570312 -16.359375 17.4375 -13.632812 17.4375 -8.1875 C 17.4375 -2.726562 14.570312 0 8.84375 0 L 1.765625 0 L 1.765625 -16.359375 Z M 7.015625 -3.921875 L 8.75 -3.921875 C 10.957031 -3.921875 12.0625 -5.101562 12.0625 -7.46875 L 12.0625 -8.890625 C 12.0625 -11.253906 10.957031 -12.4375 8.75 -12.4375 L 7.015625 -12.4375 Z M 7.015625 -3.921875 "/></g></g></g><g fill="rgb(0%, 0%, 0%)" fill-opacity="1"><g transform="translate(226.826133, 238.365486)"><g><path d="M 2 0 L 2 -16.359375 L 7.25 -16.359375 L 7.25 0 Z M 2 0 "/></g></g></g><g fill="rgb(0%, 0%, 0%)" fill-opacity="1"><g transform="translate(152.593849, 263.569989)"><g><path d="M 6.890625 0 L 1.234375 0 L 1.234375 -9.828125 L 6.890625 -9.828125 L 6.890625 -8.125 L 3.328125 -8.125 L 3.328125 -5.96875 L 6.640625 -5.96875 L 6.640625 -4.25 L 3.328125 -4.25 L 3.328125 -1.71875 L 6.890625 -1.71875 Z M 6.890625 0 "/></g></g></g><g fill="rgb(0%, 0%, 0%)" fill-opacity="1"><g transform="translate(162.162655, 263.569989)"><g><path d="M 9.296875 0 L 7.21875 0 L 7.21875 -4.234375 L 3.328125 -4.234375 L 3.328125 0 L 1.234375 0 L 1.234375 -9.828125 L 3.328125 -9.828125 L 3.328125 -5.96875 L 7.21875 -5.96875 L 7.21875 -9.828125 L 9.296875 -9.828125 Z M 9.296875 0 "/></g></g></g><g fill="rgb(0%, 0%, 0%)" fill-opacity="1"><g transform="translate(174.554655, 263.569989)"><g><path d="M 7.03125 -2.734375 C 7.03125 -1.835938 6.710938 -1.132812 6.078125 -0.625 C 5.441406 -0.113281 4.554688 0.140625 3.421875 0.140625 C 2.367188 0.140625 1.4375 -0.0546875 0.625 -0.453125 L 0.625 -2.390625 C 1.289062 -2.097656 1.851562 -1.890625 2.3125 -1.765625 C 2.769531 -1.648438 3.191406 -1.59375 3.578125 -1.59375 C 4.035156 -1.59375 4.382812 -1.675781 4.625 -1.84375 C 4.875 -2.019531 5 -2.28125 5 -2.625 C 5 -2.820312 4.941406 -2.992188 4.828125 -3.140625 C 4.722656 -3.296875 4.566406 -3.441406 4.359375 -3.578125 C 4.148438 -3.710938 3.722656 -3.929688 3.078125 -4.234375 C 2.484375 -4.523438 2.035156 -4.796875 1.734375 -5.046875 C 1.429688 -5.304688 1.191406 -5.609375 1.015625 -5.953125 C 0.835938 -6.304688 0.75 -6.710938 0.75 -7.171875 C 0.75 -8.035156 1.039062 -8.71875 1.625 -9.21875 C 2.21875 -9.71875 3.035156 -9.96875 4.078125 -9.96875 C 4.585938 -9.96875 5.070312 -9.90625 5.53125 -9.78125 C 6 -9.664062 6.484375 -9.5 6.984375 -9.28125 L 6.3125 -7.65625 C 5.789062 -7.875 5.359375 -8.023438 5.015625 -8.109375 C 4.671875 -8.191406 4.332031 -8.234375 4 -8.234375 C 3.613281 -8.234375 3.3125 -8.140625 3.09375 -7.953125 C 2.882812 -7.773438 2.78125 -7.535156 2.78125 -7.234375 C 2.78125 -7.054688 2.820312 -6.894531 2.90625 -6.75 C 2.988281 -6.613281 3.125 -6.484375 3.3125 -6.359375 C 3.5 -6.234375 3.941406 -6.003906 4.640625 -5.671875 C 5.554688 -5.234375 6.179688 -4.789062 6.515625 -4.34375 C 6.859375 -3.90625 7.03125 -3.367188 7.03125 -2.734375 Z M 7.03125 -2.734375 "/></g></g></g><g fill="rgb(0%, 0%, 0%)" fill-opacity="1"><g transform="translate(183.995744, 263.569989)"><g><path d="M 7.03125 -2.734375 C 7.03125 -1.835938 6.710938 -1.132812 6.078125 -0.625 C 5.441406 -0.113281 4.554688 0.140625 3.421875 0.140625 C 2.367188 0.140625 1.4375 -0.0546875 0.625 -0.453125 L 0.625 -2.390625 C 1.289062 -2.097656 1.851562 -1.890625 2.3125 -1.765625 C 2.769531 -1.648438 3.191406 -1.59375 3.578125 -1.59375 C 4.035156 -1.59375 4.382812 -1.675781 4.625 -1.84375 C 4.875 -2.019531 5 -2.28125 5 -2.625 C 5 -2.820312 4.941406 -2.992188 4.828125 -3.140625 C 4.722656 -3.296875 4.566406 -3.441406 4.359375 -3.578125 C 4.148438 -3.710938 3.722656 -3.929688 3.078125 -4.234375 C 2.484375 -4.523438 2.035156 -4.796875 1.734375 -5.046875 C 1.429688 -5.304688 1.191406 -5.609375 1.015625 -5.953125 C 0.835938 -6.304688 0.75 -6.710938 0.75 -7.171875 C 0.75 -8.035156 1.039062 -8.71875 1.625 -9.21875 C 2.21875 -9.71875 3.035156 -9.96875 4.078125 -9.96875 C 4.585938 -9.96875 5.070312 -9.90625 5.53125 -9.78125 C 6 -9.664062 6.484375 -9.5 6.984375 -9.28125 L 6.3125 -7.65625 C 5.789062 -7.875 5.359375 -8.023438 5.015625 -8.109375 C 4.671875 -8.191406 4.332031 -8.234375 4 -8.234375 C 3.613281 -8.234375 3.3125 -8.140625 3.09375 -7.953125 C 2.882812 -7.773438 2.78125 -7.535156 2.78125 -7.234375 C 2.78125 -7.054688 2.820312 -6.894531 2.90625 -6.75 C 2.988281 -6.613281 3.125 -6.484375 3.3125 -6.359375 C 3.5 -6.234375 3.941406 -6.003906 4.640625 -5.671875 C 5.554688 -5.234375 6.179688 -4.789062 6.515625 -4.34375 C 6.859375 -3.90625 7.03125 -3.367188 7.03125 -2.734375 Z M 7.03125 -2.734375 "/></g></g></g><g fill="rgb(0%, 0%, 0%)" fill-opacity="1"><g transform="translate(193.436829, 263.569989)"><g><path d="M 7.25 0 L 6.546875 -2.34375 L 2.953125 -2.34375 L 2.25 0 L 0 0 L 3.46875 -9.859375 L 6.015625 -9.859375 L 9.5 0 Z M 6.046875 -4.09375 C 5.378906 -6.207031 5.003906 -7.398438 4.921875 -7.671875 C 4.847656 -7.953125 4.789062 -8.175781 4.75 -8.34375 C 4.601562 -7.769531 4.179688 -6.351562 3.484375 -4.09375 Z M 6.046875 -4.09375 "/></g></g></g><g fill="rgb(0%, 0%, 0%)" fill-opacity="1"><g transform="translate(204.793656, 263.569989)"><g><path d="M 9.953125 0 L 7.3125 0 L 3.03125 -7.4375 L 2.96875 -7.4375 C 3.050781 -6.125 3.09375 -5.1875 3.09375 -4.625 L 3.09375 0 L 1.234375 0 L 1.234375 -9.828125 L 3.859375 -9.828125 L 8.140625 -2.46875 L 8.1875 -2.46875 C 8.113281 -3.738281 8.078125 -4.640625 8.078125 -5.171875 L 8.078125 -9.828125 L 9.953125 -9.828125 Z M 9.953125 0 "/></g></g></g><g fill="rgb(0%, 0%, 0%)" fill-opacity="1"><g transform="translate(217.844399, 263.569989)"><g><path d="M 1.234375 0 L 1.234375 -9.828125 L 3.328125 -9.828125 L 3.328125 0 Z M 1.234375 0 "/></g></g></g></svg>